<svg width="36" height="54" viewBox="0 0 36 54" fill="none" xmlns="http://www.w3.org/2000/svg">
<path fill-rule="evenodd" clip-rule="evenodd" d="M28.6815 9.23992C29.0398 9.16775 29.4341 9.34625 29.8253 9.74503C29.9466 9.86878 29.9616 10.0875 29.8587 10.2334C29.7558 10.3794 29.574 10.3975 29.4526 10.2737C29.1314 9.94622 28.9036 9.8979 28.7767 9.92347C28.6593 9.94712 28.5578 10.0484 28.5023 10.2411C28.3887 10.6354 28.5152 11.3351 29.1569 11.7351C29.9909 12.2548 30.4494 13.2904 30.2313 14.1123C30.1159 14.5471 29.8198 14.8629 29.3856 14.9619C28.9672 15.0573 28.4316 14.952 27.7865 14.6157C27.6405 14.5396 27.5735 14.3356 27.6367 14.16C27.7 13.9844 27.8697 13.9037 28.0157 13.9798C28.6062 14.2876 29.018 14.3403 29.2783 14.281C29.5227 14.2252 29.6367 14.0737 29.6823 13.9016C29.7863 13.5096 29.5708 12.7736 28.8918 12.3504C28.0204 11.8073 27.7419 10.7641 27.9577 10.0143C28.0669 9.63505 28.3137 9.31401 28.6815 9.23992Z" fill="#B0B1C4"/>
<path fill-rule="evenodd" clip-rule="evenodd" d="M29.0123 8.58616C29.1714 8.58332 29.3023 8.73615 29.3047 8.92752C29.3287 10.8764 29.2597 13.1799 29.1419 15.3076C29.1313 15.4985 28.9941 15.643 28.8353 15.6303C28.6765 15.6176 28.5564 15.4525 28.5669 15.2615C28.684 13.1464 28.7522 10.8625 28.7285 8.9378C28.7261 8.74644 28.8532 8.589 29.0123 8.58616Z" fill="#B0B1C4"/>
<path fill-rule="evenodd" clip-rule="evenodd" d="M16.1383 3.90378C16.5907 3.81264 17.0887 4.03805 17.5826 4.54161C17.7359 4.69789 17.7548 4.97402 17.6249 5.15837C17.4949 5.34272 17.2653 5.36548 17.112 5.20921C16.7064 4.79567 16.4188 4.73465 16.2585 4.76694C16.1102 4.79682 15.982 4.9247 15.9119 5.16808C15.7686 5.66597 15.9283 6.54955 16.7386 7.05456C17.7918 7.71094 18.3707 9.01865 18.0953 10.0564C17.9497 10.6055 17.5757 11.0044 17.0274 11.1294C16.499 11.2498 15.8227 11.1168 15.0082 10.6922C14.8238 10.5961 14.7391 10.3384 14.819 10.1167C14.8989 9.89495 15.1131 9.7931 15.2975 9.8892C16.0433 10.2779 16.5632 10.3444 16.8919 10.2695C17.2006 10.1991 17.3444 10.0077 17.4021 9.79037C17.5334 9.29538 17.2612 8.366 16.4038 7.83162C15.3035 7.14586 14.9517 5.82851 15.2243 4.8817C15.3622 4.40273 15.6739 3.99733 16.1383 3.90378Z" fill="#B0B1C4"/>
<path fill-rule="evenodd" clip-rule="evenodd" d="M16.5554 3.07828C16.7563 3.0747 16.9216 3.26769 16.9246 3.50934C16.955 5.97032 16.8678 8.87916 16.7191 11.5659C16.7057 11.8071 16.5324 11.9895 16.3319 11.9735C16.1314 11.9574 15.9797 11.7489 15.993 11.5078C16.1409 8.83682 16.227 5.95282 16.197 3.52232C16.194 3.28067 16.3545 3.08187 16.5554 3.07828Z" fill="#B0B1C4"/>
<path fill-rule="evenodd" clip-rule="evenodd" d="M23.1465 0.547451C23.3735 0.501726 23.6233 0.614817 23.8711 0.867455C23.948 0.945859 23.9575 1.0844 23.8923 1.17689C23.8271 1.26938 23.7119 1.2808 23.635 1.20239C23.4315 0.994919 23.2872 0.964305 23.2068 0.980504C23.1324 0.995492 23.0681 1.05965 23.0329 1.18176C22.961 1.43155 23.0411 1.87485 23.4477 2.12821C23.976 2.45752 24.2665 3.11361 24.1283 3.63426C24.0553 3.90973 23.8677 4.10984 23.5926 4.17256C23.3275 4.23299 22.9882 4.16625 22.5795 3.95324C22.487 3.90502 22.4445 3.77575 22.4846 3.6645C22.5247 3.55325 22.6322 3.50215 22.7247 3.55036C23.0988 3.74538 23.3597 3.77875 23.5246 3.74115C23.6794 3.70585 23.7516 3.60981 23.7805 3.50078C23.8464 3.25244 23.7099 2.78617 23.2797 2.51806C22.7277 2.17402 22.5512 1.5131 22.6879 1.03808C22.7571 0.797778 22.9135 0.594387 23.1465 0.547451Z" fill="#B0B1C4"/>
<path fill-rule="evenodd" clip-rule="evenodd" d="M23.3558 0.132672C23.4566 0.130873 23.5396 0.227697 23.5411 0.348934C23.5563 1.58362 23.5126 3.043 23.438 4.39095C23.4313 4.51193 23.3443 4.60348 23.2437 4.59543C23.1431 4.58737 23.067 4.48277 23.0737 4.36178C23.1479 3.02175 23.1911 1.57484 23.176 0.355448C23.1745 0.234211 23.255 0.134471 23.3558 0.132672Z" fill="#B0B1C4"/>
<path fill-rule="evenodd" clip-rule="evenodd" d="M1.0127 48.8V51.6688L4.51895 53.2626L18.8627 45.2938C22.6877 45.9313 31.2939 45.0246 31.2939 42.7438C31.2939 41.8448 31.3629 41.0838 31.4175 40.4817C31.4984 39.5892 31.5477 39.0457 31.2939 38.9188C30.8689 37.2188 27.7877 33.1812 17.2689 36.3687C16.1002 36.5812 12.8064 38.6 14.4002 41.4688L1.0127 48.8ZM16.6314 40.1938C18.2252 38.9188 22.8789 37.07 28.7439 39.875C27.1502 41.3625 22.4964 43.5088 16.6314 40.1938Z" fill="#01C9CC"/>
<path d="M20.3767 30.7201C20.0361 30.7201 19.7145 30.5713 19.497 30.3016L16.1862 26.2555C15.9686 25.9857 15.8835 25.6416 15.9686 25.3067L17.151 20.2561C17.2267 19.9212 17.4537 19.6515 17.7659 19.5027L22.5525 17.2517C22.7039 17.1774 22.8741 17.1401 23.0444 17.1401C23.2147 17.1401 23.3849 17.1773 23.5363 17.2518L28.3229 19.4934C28.6351 19.6422 28.8621 19.9119 28.9378 20.2468L30.1202 25.2974C30.1959 25.6323 30.1202 25.9764 29.9027 26.2462L26.5918 30.2923C26.3742 30.5527 26.0526 30.7108 25.712 30.7108L20.3768 30.7201H20.3767Z" fill="#326DE6"/>
<path d="M23.0347 17.3727C23.1672 17.3727 23.2996 17.4006 23.4226 17.4564L28.2092 19.6981C28.4551 19.819 28.6443 20.0422 28.7011 20.3027L29.8835 25.3533C29.9497 25.6231 29.8835 25.9021 29.7038 26.116L26.3929 30.1622C26.2227 30.376 25.9578 30.497 25.6835 30.497H20.3766C20.1022 30.497 19.8374 30.376 19.6671 30.1622L16.3562 26.116C16.186 25.9021 16.1197 25.6231 16.1765 25.3533L17.359 20.3027C17.4252 20.0329 17.6049 19.8097 17.8508 19.6981L22.6375 17.4472C22.7605 17.4007 22.9024 17.3728 23.0348 17.3728L23.0347 17.3727ZM23.0347 16.9355C22.8361 16.9355 22.6375 16.9821 22.4482 17.0658L17.6617 19.3167C17.2832 19.4935 17.0184 19.819 16.9238 20.2189L15.7413 25.2696C15.6468 25.6696 15.7413 26.0788 16.0062 26.4044L19.3171 30.4505C19.5725 30.7667 19.9603 30.9434 20.3671 30.9434H25.674C26.0807 30.9434 26.4686 30.7667 26.724 30.4505L30.0349 26.4043C30.2998 26.0881 30.3944 25.6696 30.2998 25.2696L29.1173 20.2189C29.0227 19.819 28.7578 19.4935 28.3795 19.3167L23.6118 17.0657C23.432 16.9821 23.2334 16.9355 23.0347 16.9355Z" fill="white"/>
<path d="M27.8307 24.9531C27.8213 24.9531 27.8213 24.9531 27.8307 24.9531H27.8213C27.8118 24.9531 27.8024 24.9531 27.8024 24.9438C27.7835 24.9438 27.7646 24.9345 27.7456 24.9345C27.6794 24.9252 27.6227 24.9159 27.5659 24.9159C27.5375 24.9159 27.5091 24.9159 27.4713 24.9066H27.4618C27.2632 24.888 27.1024 24.8694 26.951 24.8229C26.8848 24.795 26.8659 24.7578 26.8469 24.7206C26.8469 24.7113 26.8375 24.7113 26.8375 24.702L26.7145 24.6648C26.7726 24.2273 26.7502 23.783 26.6483 23.3533C26.545 22.9199 26.3658 22.5076 26.1186 22.1348L26.2132 22.0511V22.0325C26.2132 21.986 26.2226 21.9395 26.2604 21.893C26.3739 21.7906 26.5159 21.7069 26.6862 21.6046C26.7145 21.586 26.7429 21.5767 26.7713 21.5581C26.828 21.5302 26.8753 21.5023 26.9321 21.4651C26.9415 21.4558 26.9604 21.4465 26.9794 21.428C26.9889 21.4186 26.9983 21.4186 26.9983 21.4093C27.1307 21.2977 27.1591 21.1117 27.0645 20.9907C27.0172 20.9256 26.9321 20.8884 26.8469 20.8884C26.7713 20.8884 26.7051 20.9163 26.6388 20.9628L26.6199 20.9814C26.601 20.9907 26.5915 21.0093 26.5726 21.0186C26.5253 21.0652 26.4875 21.1023 26.4497 21.1488C26.4308 21.1674 26.4119 21.1954 26.3835 21.2139C26.251 21.3535 26.128 21.4651 26.005 21.5488C25.9767 21.5674 25.9483 21.5767 25.9199 21.5767C25.901 21.5767 25.8821 21.5767 25.8632 21.5674H25.8443L25.7307 21.6418C25.6077 21.5116 25.4753 21.4 25.3429 21.2884C24.7727 20.8501 24.0864 20.5822 23.3658 20.5164L23.3563 20.3954L23.3374 20.3769C23.309 20.3489 23.2712 20.321 23.2617 20.2559C23.2523 20.1071 23.2712 19.9397 23.2901 19.7536V19.7444C23.2901 19.7164 23.2996 19.6793 23.309 19.6513C23.3185 19.5956 23.3279 19.5397 23.3374 19.4746V19.3909C23.3374 19.2235 23.205 19.084 23.0442 19.084C22.9685 19.084 22.8928 19.1212 22.8361 19.177C22.7793 19.2328 22.7509 19.3072 22.7509 19.3909V19.4653C22.7509 19.5304 22.7604 19.5862 22.7793 19.642C22.7887 19.67 22.7887 19.6978 22.7982 19.7351V19.7444C22.8171 19.9304 22.8455 20.0978 22.8266 20.2466C22.8171 20.3118 22.7793 20.3396 22.7509 20.3676L22.732 20.3861L22.7225 20.5071C22.5523 20.5256 22.382 20.5442 22.2117 20.5815C21.4833 20.7396 20.8401 21.1024 20.3387 21.6232L20.2441 21.5581H20.2252C20.2063 21.5581 20.1874 21.5674 20.1685 21.5674C20.14 21.5674 20.1117 21.5581 20.0833 21.5395C19.9603 21.4558 19.8373 21.3349 19.7049 21.1954C19.686 21.1768 19.6671 21.1488 19.6387 21.1303C19.6009 21.0837 19.563 21.0465 19.5157 21.0001C19.5062 20.9907 19.4873 20.9815 19.4684 20.9628C19.459 20.9535 19.4495 20.9535 19.4495 20.9442C19.3909 20.8966 19.3174 20.8703 19.2414 20.8698C19.1562 20.8698 19.0711 20.907 19.0238 20.9721C18.9292 21.093 18.9576 21.2791 19.09 21.3907C19.0995 21.3907 19.0995 21.4 19.1089 21.4C19.1278 21.4093 19.1373 21.4279 19.1562 21.4372C19.213 21.4744 19.2603 21.5023 19.3171 21.5302C19.3455 21.5395 19.3738 21.5581 19.4022 21.5767C19.5724 21.679 19.7144 21.7628 19.8279 21.8651C19.8752 21.9115 19.8752 21.9581 19.8752 22.0046V22.0232L19.9698 22.1069C19.9509 22.1348 19.932 22.1534 19.9225 22.1813C19.4495 22.9161 19.2697 23.7812 19.3927 24.6369L19.2697 24.6741C19.2697 24.6834 19.2603 24.6834 19.2603 24.6927C19.2414 24.7299 19.213 24.7671 19.1562 24.795C19.0144 24.8415 18.8441 24.8601 18.6454 24.8787H18.6359C18.6076 24.8787 18.5697 24.8787 18.5414 24.888C18.4846 24.888 18.4279 24.8973 18.3616 24.9066C18.3427 24.9066 18.3238 24.9159 18.3049 24.9159C18.2954 24.9159 18.286 24.9159 18.2765 24.9252C18.1062 24.9624 18.0021 25.1205 18.0305 25.2693C18.0589 25.3996 18.1819 25.4833 18.3332 25.4833C18.3616 25.4833 18.3805 25.4833 18.409 25.474C18.4184 25.474 18.4279 25.474 18.4279 25.4647C18.4468 25.4647 18.4657 25.4554 18.4846 25.4554C18.5508 25.4368 18.5981 25.4182 18.6549 25.3903C18.6832 25.381 18.7116 25.3624 18.74 25.3531H18.7495C18.9292 25.288 19.09 25.2322 19.2414 25.2136H19.2603C19.3171 25.2136 19.3549 25.2415 19.3833 25.2601C19.3927 25.2601 19.3927 25.2694 19.4022 25.2694L19.5346 25.2508C19.7617 25.9391 20.1968 26.553 20.7739 26.9995C20.9063 27.1017 21.0387 27.1855 21.1806 27.2692L21.1239 27.3901C21.1239 27.3994 21.1333 27.3994 21.1333 27.4087C21.1522 27.4459 21.1711 27.4924 21.1522 27.5575C21.0955 27.6971 21.0103 27.8365 20.9063 27.9947V28.004C20.8874 28.0319 20.8685 28.0505 20.8496 28.0784C20.8117 28.1249 20.7833 28.1714 20.7454 28.2272C20.736 28.2365 20.7265 28.2551 20.7171 28.2737C20.7171 28.283 20.7076 28.2923 20.7076 28.2923C20.632 28.4505 20.6887 28.6272 20.8306 28.6923C20.8684 28.7109 20.9063 28.7202 20.9441 28.7202C21.0577 28.7202 21.1712 28.6458 21.2279 28.5434C21.2279 28.5341 21.2374 28.5249 21.2374 28.5249C21.2468 28.5063 21.2563 28.4877 21.2657 28.4783C21.2941 28.4132 21.3036 28.3667 21.3225 28.3109L21.3509 28.2272C21.4171 28.0412 21.4644 27.8924 21.5495 27.7622C21.5873 27.7063 21.6347 27.6971 21.6725 27.6784C21.682 27.6784 21.682 27.6784 21.6914 27.6691L21.7577 27.5482C22.1739 27.7063 22.628 27.79 23.082 27.79C23.3563 27.79 23.6401 27.7622 23.905 27.6971C24.0717 27.6604 24.236 27.6138 24.3969 27.5575L24.4536 27.6598C24.4631 27.6598 24.4631 27.6598 24.4726 27.6691C24.5199 27.6784 24.5577 27.6971 24.5955 27.7529C24.6712 27.8831 24.728 28.0412 24.7942 28.2179V28.2272L24.8226 28.3109C24.8415 28.3667 24.8509 28.4225 24.8793 28.4783C24.8888 28.4969 24.8983 28.5063 24.9077 28.5249C24.9077 28.5341 24.9172 28.5434 24.9172 28.5434C24.9739 28.6551 25.0874 28.7202 25.201 28.7202C25.2388 28.7202 25.2767 28.7109 25.3145 28.6923C25.3807 28.6551 25.4374 28.5992 25.4564 28.5249C25.4753 28.4505 25.4753 28.3667 25.4375 28.2923C25.4375 28.283 25.428 28.283 25.428 28.2737C25.4185 28.2552 25.4091 28.2366 25.3996 28.2272C25.3712 28.1714 25.3334 28.1249 25.2956 28.0784C25.2767 28.0505 25.2578 28.0319 25.2389 28.004V27.9947C25.1347 27.8365 25.0401 27.6971 24.9929 27.5575C24.974 27.4924 24.9929 27.4552 25.0023 27.4087C25.0023 27.3994 25.0118 27.3994 25.0118 27.3901L24.9645 27.2785C25.4658 26.9902 25.8915 26.5808 26.2132 26.0786C26.3835 25.8181 26.5159 25.5298 26.6104 25.2415L26.724 25.26C26.7335 25.26 26.7335 25.2508 26.7429 25.2508C26.7807 25.2322 26.8091 25.2043 26.8659 25.2043H26.8848C27.0362 25.2229 27.1969 25.2786 27.3767 25.3438H27.3862C27.4145 25.3531 27.4429 25.3717 27.4713 25.381C27.528 25.4089 27.5754 25.4275 27.6416 25.4461C27.6605 25.4461 27.6794 25.4554 27.6983 25.4554C27.7078 25.4554 27.7172 25.4554 27.7267 25.4647C27.7551 25.474 27.774 25.474 27.8024 25.474C27.9443 25.474 28.0672 25.381 28.1051 25.2601C28.1051 25.1485 28.001 24.9996 27.8307 24.9532V24.9531ZM23.4509 24.4973L23.0347 24.6927L22.6185 24.4973L22.5144 24.0602L22.7982 23.7068H23.2617L23.5455 24.0602L23.451 24.4973H23.4509ZM25.9199 23.53C25.9933 23.8376 26.0157 24.1548 25.9861 24.4694L24.5388 24.0602C24.4064 24.023 24.3307 23.8928 24.3591 23.7626C24.3685 23.7253 24.3875 23.6881 24.4158 23.6602L25.5605 22.6464C25.7212 22.9068 25.8442 23.2045 25.9199 23.53V23.53ZM25.1064 22.0883L23.8672 22.9534C23.7631 23.0185 23.6212 22.9998 23.5361 22.8975C23.5077 22.8696 23.4983 22.8324 23.4888 22.7952L23.4036 21.2791C24.0479 21.352 24.648 21.6372 25.1064 22.0883ZM22.3631 21.3255C22.4671 21.3069 22.5617 21.2883 22.6658 21.2698L22.5807 22.7579C22.5712 22.8881 22.4671 22.9998 22.3252 22.9998C22.2874 22.9998 22.2401 22.9905 22.2117 22.9719L20.9536 22.0883C21.3415 21.7069 21.8239 21.4465 22.3631 21.3256V21.3255ZM20.4995 22.6463L21.6252 23.6323C21.7293 23.716 21.7387 23.8741 21.6536 23.9764C21.6252 24.0136 21.5874 24.0415 21.5401 24.0509L20.0738 24.4694C20.0171 23.8369 20.1589 23.1951 20.4995 22.6463ZM20.2441 25.167L21.7482 24.9158C21.8712 24.9065 21.9847 24.9903 22.0131 25.1112C22.0225 25.167 22.0225 25.2135 22.0036 25.26L21.4266 26.6273C20.8968 26.2924 20.4712 25.7809 20.2441 25.167H20.2441ZM23.6969 27.018C23.4793 27.0645 23.2617 27.0924 23.0347 27.0924C22.7036 27.0924 22.382 27.0366 22.0793 26.9436L22.8266 25.6135C22.9023 25.5297 23.0252 25.4926 23.1293 25.5484C23.1735 25.575 23.212 25.6097 23.2428 25.6507L23.9712 26.9436C23.8861 26.9715 23.7915 26.9901 23.6968 27.018H23.6969ZM25.5415 25.7251C25.305 26.0971 24.9928 26.3948 24.6334 26.6273L24.0375 25.2228C24.0091 25.1112 24.0564 24.9903 24.1699 24.9344C24.2077 24.9158 24.255 24.9065 24.3023 24.9065L25.8159 25.1577C25.7591 25.3623 25.6645 25.5484 25.5415 25.7251Z" fill="white"/>
<path fill-rule="evenodd" clip-rule="evenodd" d="M23.2026 36.2089C23.2076 36.2086 23.2126 36.2085 23.2176 36.2085C25.1033 36.2085 27.3147 36.5358 28.706 37.1595C29.0566 37.3166 29.3678 37.4981 29.6112 37.7075C29.8541 37.9164 30.0457 38.1673 30.1237 38.4643C30.2886 39.0915 29.9104 39.7003 29.1627 40.2647C27.0927 41.8273 24.2646 42.2334 21.8411 42.1513C20.6236 42.1101 19.4933 41.9453 18.5883 41.733C18.1358 41.6269 17.7362 41.508 17.4082 41.3852C17.0854 41.2643 16.8129 41.1327 16.6282 40.9943L16.8195 40.7392L16.6282 40.9943C16.3336 40.7734 16.0328 40.3877 15.8957 39.9202C15.7548 39.4397 15.7878 38.8708 16.1744 38.327C16.5527 37.795 17.2462 37.3194 18.3588 36.9511C19.4744 36.5819 21.0396 36.3109 23.2026 36.2089ZM23.2251 36.846C21.0991 36.9467 19.5989 37.2122 18.5591 37.5563C17.5152 37.9018 16.9635 38.3172 16.694 38.6964C16.4327 39.0639 16.4153 39.4265 16.5074 39.7408C16.6034 40.0681 16.8191 40.3406 17.0107 40.4842L16.8215 40.7365L17.0107 40.4842C17.1231 40.5685 17.329 40.6748 17.6317 40.7881C17.929 40.8995 18.3017 41.011 18.7339 41.1124C19.5983 41.3152 20.6871 41.4744 21.8626 41.5142C24.2251 41.5941 26.8785 41.1902 28.7786 39.7558C29.4765 39.229 29.5677 38.8567 29.5072 38.6263C29.4725 38.4945 29.3776 38.3474 29.1955 38.1908C29.0139 38.0346 28.7616 37.883 28.4452 37.7412C27.1704 37.1697 25.0636 36.8469 23.2251 36.846Z" fill="black"/>
<path fill-rule="evenodd" clip-rule="evenodd" d="M19.0864 42.4453C19.2624 42.4453 19.4051 42.588 19.4051 42.7641V45.2938C19.4051 45.4699 19.2624 45.6126 19.0864 45.6126C18.9103 45.6126 18.7676 45.4699 18.7676 45.2938V42.7641C18.7676 42.588 18.9103 42.4453 19.0864 42.4453ZM1.02334 48.405C1.19938 48.405 1.34209 48.5477 1.34209 48.7238V51.1881C1.34209 51.3641 1.19938 51.5068 1.02334 51.5068C0.847299 51.5068 0.70459 51.3641 0.70459 51.1881V48.7238C0.70459 48.5477 0.847299 48.405 1.02334 48.405Z" fill="black"/>
<path fill-rule="evenodd" clip-rule="evenodd" d="M0.581865 48.6548C0.654106 48.4943 0.842808 48.4227 1.00334 48.495C2.50369 49.1701 3.92456 49.9074 5.36313 50.6747C5.51846 50.7575 5.57722 50.9506 5.49438 51.1059C5.41153 51.2613 5.21846 51.32 5.06313 51.2372C3.6276 50.4716 2.22198 49.7424 0.741736 49.0763C0.581201 49.0041 0.509624 48.8154 0.581865 48.6548Z" fill="black"/>
<path fill-rule="evenodd" clip-rule="evenodd" d="M19.3217 42.6197C19.4053 42.7746 19.3474 42.968 19.1924 43.0515C16.9757 44.2468 14.7346 45.3944 12.4972 46.5402C12.2745 46.6542 12.0519 46.7682 11.8293 46.8822C9.36907 48.1427 6.91584 49.4068 4.49906 50.7391C4.3449 50.8241 4.15102 50.7681 4.06603 50.6139C3.98104 50.4597 4.03712 50.2658 4.19129 50.1809C6.61749 48.8433 9.07854 47.5752 11.5387 46.3148C11.7611 46.2009 11.9836 46.0869 12.206 45.973C14.4444 44.8268 16.6794 43.6823 18.8899 42.4904C19.0448 42.4068 19.2382 42.4647 19.3217 42.6197Z" fill="black"/>
<path fill-rule="evenodd" clip-rule="evenodd" d="M19.3667 45.271C19.4503 45.426 19.3924 45.6193 19.2374 45.7029C17.2841 46.7561 15.2949 47.8097 13.3005 48.8659C10.316 50.4465 7.32025 52.033 4.41703 53.6335C4.26287 53.7185 4.06899 53.6624 3.984 53.5083C3.89901 53.3541 3.95509 53.1602 4.10926 53.0752C7.0147 51.4735 10.0215 49.8811 13.0115 48.2975C15.0051 47.2417 16.9913 46.1898 18.9349 45.1418C19.0898 45.0582 19.2832 45.1161 19.3667 45.271Z" fill="black"/>
<path fill-rule="evenodd" clip-rule="evenodd" d="M15.7215 41.2359C15.8051 41.3908 15.7472 41.5842 15.5923 41.6677C13.407 42.8461 11.1371 44.0201 8.86184 45.1969C6.04228 46.6552 3.21441 48.1179 0.528848 49.5984C0.374681 49.6833 0.180808 49.6273 0.0958188 49.4731C0.0108297 49.3189 0.0669089 49.1251 0.221075 49.0401C2.90075 47.5628 5.75273 46.0874 8.58737 44.6211C10.8655 43.4426 13.1324 42.2698 15.2897 41.1066C15.4446 41.0231 15.638 41.0809 15.7215 41.2359Z" fill="black"/>
<path fill-rule="evenodd" clip-rule="evenodd" d="M32.042 39.5563C32.1584 39.6884 32.1456 39.8898 32.0136 40.0062C28.5186 43.085 23.5507 43.8995 18.9488 43.0778C18.7755 43.0468 18.6601 42.8813 18.6911 42.708C18.722 42.5347 18.8876 42.4193 19.0609 42.4502C23.531 43.2485 28.2831 42.443 31.5921 39.5278C31.7242 39.4115 31.9257 39.4242 32.042 39.5563Z" fill="black"/>
<path fill-rule="evenodd" clip-rule="evenodd" d="M32.2046 42.2145C32.321 42.3466 32.3082 42.548 32.1762 42.6644C28.6812 45.7432 23.7133 46.5577 19.1114 45.736C18.9381 45.705 18.8227 45.5395 18.8537 45.3662C18.8846 45.1929 19.0502 45.0775 19.2235 45.1084C23.6936 45.9067 28.4457 45.1012 31.7547 42.186C31.8868 42.0697 32.0883 42.0824 32.2046 42.2145Z" fill="black"/>
<path fill-rule="evenodd" clip-rule="evenodd" d="M17.5638 36.5819C16.3932 37.0173 15.5301 37.5205 15.1017 37.9805C14.4419 38.6889 14.3863 39.3217 14.5522 39.8463C14.7278 40.4013 15.1688 40.8847 15.5867 41.2153L15.1912 41.7153C14.7266 41.3478 14.1748 40.7667 13.9444 40.0386C13.7044 39.2799 13.8298 38.4107 14.6352 37.546C15.1663 36.9759 16.1425 36.4304 17.3416 35.9844C18.5516 35.5343 20.0266 35.1716 21.5909 34.9883C24.706 34.6235 28.2468 34.9633 30.7477 36.8301L30.7525 36.8337L30.7572 36.8375C31.4584 37.4034 32.3227 38.691 31.6258 40.201L31.047 39.9339C31.5685 38.8039 30.9465 37.812 30.3614 37.3373C28.0509 35.6156 24.7094 35.2649 21.6651 35.6215C20.1485 35.7991 18.7235 36.1505 17.5638 36.5819Z" fill="black"/>
<path fill-rule="evenodd" clip-rule="evenodd" d="M31.3979 38.8003C31.5739 38.8003 31.7166 38.943 31.7166 39.119V42.7439C31.7166 42.9199 31.5739 43.0626 31.3979 43.0626C31.2218 43.0626 31.0791 42.9199 31.0791 42.7439V39.119C31.0791 38.943 31.2218 38.8003 31.3979 38.8003Z" fill="black"/>
<path fill-rule="evenodd" clip-rule="evenodd" d="M14.0639 39.2051C14.2399 39.2051 14.3826 39.3478 14.3826 39.5238V41.4678C14.3826 41.6439 14.2399 41.7866 14.0639 41.7866C13.8878 41.7866 13.7451 41.6439 13.7451 41.4678V39.5238C13.7451 39.3478 13.8878 39.2051 14.0639 39.2051Z" fill="black"/>
<path fill-rule="evenodd" clip-rule="evenodd" d="M13.8874 41.0643C14.0595 41.0273 14.2291 41.1367 14.2662 41.3088C14.298 41.4564 14.3513 41.5687 14.4267 41.6441C14.5512 41.7686 14.5512 41.9704 14.4267 42.0949C14.3023 42.2194 14.1004 42.2194 13.976 42.0949C13.7835 41.9024 13.6897 41.6603 13.643 41.4431C13.6059 41.271 13.7153 41.1014 13.8874 41.0643Z" fill="black"/>
<path fill-rule="evenodd" clip-rule="evenodd" d="M23.0234 38.908C20.7002 38.9127 18.3357 39.4876 16.8372 40.7557C16.7028 40.8694 16.5016 40.8527 16.3879 40.7183C16.2742 40.5839 16.291 40.3828 16.4254 40.269C18.0858 38.8641 20.6245 38.2753 23.0221 38.2705C25.4141 38.2657 27.7696 38.8424 29.0666 39.88C29.2041 39.99 29.2264 40.1906 29.1164 40.328C29.0065 40.4655 28.8059 40.4878 28.6684 40.3778C27.5355 39.4715 25.3523 38.9034 23.0234 38.908Z" fill="black"/>
<path fill-rule="evenodd" clip-rule="evenodd" d="M34.8712 16.614C35.0428 16.6533 35.1501 16.8242 35.1109 16.9958L30.0109 39.3083C29.9717 39.4799 29.8008 39.5872 29.6292 39.548C29.4575 39.5088 29.3502 39.3379 29.3895 39.1663L34.4894 16.8538C34.5287 16.6821 34.6996 16.5748 34.8712 16.614ZM10.6677 17.0201C10.8387 16.9784 11.0112 17.0833 11.0528 17.2543L16.6224 40.1181C16.664 40.2891 16.5592 40.4616 16.3881 40.5032C16.2171 40.5449 16.0447 40.44 16.003 40.269L10.4334 17.4052C10.3918 17.2342 10.4967 17.0617 10.6677 17.0201Z" fill="black"/>
<path fill-rule="evenodd" clip-rule="evenodd" d="M21.0938 36.3687C21.2699 36.3687 21.4126 36.5114 21.4126 36.6874V38.5999C21.4126 38.7759 21.2699 38.9187 21.0938 38.9187C20.9178 38.9187 20.7751 38.7759 20.7751 38.5999V36.6874C20.7751 36.5114 20.9178 36.3687 21.0938 36.3687ZM23.0063 36.3687C23.1824 36.3687 23.3251 36.5114 23.3251 36.6874V38.2812C23.3251 38.4572 23.1824 38.5999 23.0063 38.5999C22.8303 38.5999 22.6876 38.4572 22.6876 38.2812V36.6874C22.6876 36.5114 22.8303 36.3687 23.0063 36.3687ZM24.9188 36.3687C25.0949 36.3687 25.2376 36.5114 25.2376 36.6874V38.5999C25.2376 38.7759 25.0949 38.9187 24.9188 38.9187C24.7428 38.9187 24.6001 38.7759 24.6001 38.5999V36.6874C24.6001 36.5114 24.7428 36.3687 24.9188 36.3687ZM19.1813 36.6874C19.3574 36.6874 19.5001 36.8301 19.5001 37.0062V38.9187C19.5001 39.0947 19.3574 39.2374 19.1813 39.2374C19.0053 39.2374 18.8626 39.0947 18.8626 38.9187V37.0062C18.8626 36.8301 19.0053 36.6874 19.1813 36.6874ZM26.8313 36.6874C27.0074 36.6874 27.1501 36.8301 27.1501 37.0062V38.9187C27.1501 39.0947 27.0074 39.2374 26.8313 39.2374C26.6553 39.2374 26.5126 39.0947 26.5126 38.9187V37.0062C26.5126 36.8301 26.6553 36.6874 26.8313 36.6874ZM17.5876 37.3249C17.7636 37.3249 17.9063 37.4676 17.9063 37.6437V39.8749C17.9063 40.0509 17.7636 40.1937 17.5876 40.1937C17.4116 40.1937 17.2688 40.0509 17.2688 39.8749V37.6437C17.2688 37.4676 17.4116 37.3249 17.5876 37.3249ZM28.7438 37.3249C28.9199 37.3249 29.0626 37.4676 29.0626 37.6437V39.8749C29.0626 40.0509 28.9199 40.1937 28.7438 40.1937C28.5678 40.1937 28.4251 40.0509 28.4251 39.8749V37.6437C28.4251 37.4676 28.5678 37.3249 28.7438 37.3249ZM29.7001 41.1499C29.8761 41.1499 30.0188 41.2926 30.0188 41.4687V44.0187C30.0188 44.1947 29.8761 44.3374 29.7001 44.3374C29.5241 44.3374 29.3813 44.1947 29.3813 44.0187V41.4687C29.3813 41.2926 29.5241 41.1499 29.7001 41.1499ZM27.7876 42.1062C27.9636 42.1062 28.1063 42.2489 28.1063 42.4249V44.6562C28.1063 44.8322 27.9636 44.9749 27.7876 44.9749C27.6116 44.9749 27.4688 44.8322 27.4688 44.6562V42.4249C27.4688 42.2489 27.6116 42.1062 27.7876 42.1062ZM25.8751 42.4249C26.0511 42.4249 26.1938 42.5676 26.1938 42.7437V45.2937C26.1938 45.4697 26.0511 45.6124 25.8751 45.6124C25.6991 45.6124 25.5563 45.4697 25.5563 45.2937V42.7437C25.5563 42.5676 25.6991 42.4249 25.8751 42.4249ZM23.9626 42.7437C24.1386 42.7437 24.2813 42.8864 24.2813 43.0624V45.6124C24.2813 45.7884 24.1386 45.9312 23.9626 45.9312C23.7866 45.9312 23.6438 45.7884 23.6438 45.6124V43.0624C23.6438 42.8864 23.7866 42.7437 23.9626 42.7437ZM20.4563 43.0624C20.6324 43.0624 20.7751 43.2051 20.7751 43.3812V45.6124C20.7751 45.7884 20.6324 45.9312 20.4563 45.9312C20.2803 45.9312 20.1376 45.7884 20.1376 45.6124V43.3812C20.1376 43.2051 20.2803 43.0624 20.4563 43.0624ZM22.3688 43.0624C22.5449 43.0624 22.6876 43.2051 22.6876 43.3812V45.6124C22.6876 45.7884 22.5449 45.9312 22.3688 45.9312C22.1928 45.9312 22.0501 45.7884 22.0501 45.6124V43.3812C22.0501 43.2051 22.1928 43.0624 22.3688 43.0624ZM17.9063 43.3812C18.0824 43.3812 18.2251 43.5239 18.2251 43.6999V45.9312C18.2251 46.1072 18.0824 46.2499 17.9063 46.2499C17.7303 46.2499 17.5876 46.1072 17.5876 45.9312V43.6999C17.5876 43.5239 17.7303 43.3812 17.9063 43.3812ZM16.3126 44.0187C16.4886 44.0187 16.6313 44.1614 16.6313 44.3374V46.8874C16.6313 47.0634 16.4886 47.2062 16.3126 47.2062C16.1366 47.2062 15.9938 47.0634 15.9938 46.8874V44.3374C15.9938 44.1614 16.1366 44.0187 16.3126 44.0187ZM14.7188 44.9749C14.8949 44.9749 15.0376 45.1176 15.0376 45.2937V47.5249C15.0376 47.7009 14.8949 47.8437 14.7188 47.8437C14.5428 47.8437 14.4001 47.7009 14.4001 47.5249V45.2937C14.4001 45.1176 14.5428 44.9749 14.7188 44.9749ZM13.1251 45.6124C13.3011 45.6124 13.4438 45.7551 13.4438 45.9312V48.4812C13.4438 48.6572 13.3011 48.7999 13.1251 48.7999C12.9491 48.7999 12.8063 48.6572 12.8063 48.4812V45.9312C12.8063 45.7551 12.9491 45.6124 13.1251 45.6124ZM11.2126 46.5687C11.3886 46.5687 11.5313 46.7114 11.5313 46.8874V49.4374C11.5313 49.6134 11.3886 49.7562 11.2126 49.7562C11.0366 49.7562 10.8938 49.6134 10.8938 49.4374V46.8874C10.8938 46.7114 11.0366 46.5687 11.2126 46.5687ZM8.98135 47.8437C9.15739 47.8437 9.3001 47.9864 9.3001 48.1624V50.7124C9.3001 50.8884 9.15739 51.0312 8.98135 51.0312C8.80531 51.0312 8.6626 50.8884 8.6626 50.7124V48.1624C8.6626 47.9864 8.80531 47.8437 8.98135 47.8437ZM6.7501 49.1187C6.92614 49.1187 7.06885 49.2614 7.06885 49.4374V51.6687C7.06885 51.8447 6.92614 51.9874 6.7501 51.9874C6.57406 51.9874 6.43135 51.8447 6.43135 51.6687V49.4374C6.43135 49.2614 6.57406 49.1187 6.7501 49.1187ZM2.60635 49.4374C2.78239 49.4374 2.9251 49.5801 2.9251 49.7562V52.6249C2.9251 52.8009 2.78239 52.9437 2.60635 52.9437C2.43031 52.9437 2.2876 52.8009 2.2876 52.6249V49.7562C2.2876 49.5801 2.43031 49.4374 2.60635 49.4374Z" fill="black"/>
</svg>
